<?xml version="1.0" encoding="utf-8"?>
<!-- Generator: Adobe Illustrator 16.0.3, SVG Export Plug-In . SVG Version: 6.00 Build 0)  -->
<!DOCTYPE svg PUBLIC "-//W3C//DTD SVG 1.1//EN" "http://www.w3.org/Graphics/SVG/1.1/DTD/svg11.dtd">
<svg version="1.1" id="Layer_1" xmlns="http://www.w3.org/2000/svg" xmlns:xlink="http://www.w3.org/1999/xlink" x="0px" y="0px"
	 width="127.559px" height="56.693px" viewBox="0 0 127.559 56.693" enable-background="new 0 0 127.559 56.693"
	 xml:space="preserve">
<rect x="109.307" y="18.21" fill="#FFFFFF" width="9.823" height="20.193"/>
<rect x="69.003" y="8.195" fill="#E94812" width="40.304" height="40.304"/>
<polygon fill="#FFFFFF" points="98.408,35.907 98.408,41.782 79.901,41.782 79.901,35.907 85.737,35.907 85.737,20.778 
	80.438,20.778 80.438,14.903 93.34,14.903 93.34,35.907 "/>
<rect x="8.429" y="18.21" fill="#FFFFFF" width="60.574" height="20.192"/>
<g>
	<defs>
		<rect id="SVGID_1_" width="127.559" height="56.693"/>
	</defs>
	<clipPath id="SVGID_2_">
		<use xlink:href="#SVGID_1_"  overflow="visible"/>
	</clipPath>
	<path clip-path="url(#SVGID_2_)" d="M18.385,22.994h8.879v2.322h-5.919v1.715h2.747c1.285,0,2.271,0.273,2.96,0.82
		c0.688,0.546,1.031,1.33,1.031,2.352c0,1.073-0.384,1.91-1.153,2.512c-0.769,0.603-1.847,0.903-3.233,0.903h-5.312V22.994z
		 M23.5,31.462c0.506,0,0.89-0.101,1.153-0.304c0.264-0.202,0.395-0.49,0.395-0.864c0-0.749-0.516-1.124-1.548-1.124h-2.155v2.292
		H23.5z"/>
	<polygon clip-path="url(#SVGID_2_)" points="44.597,22.993 44.597,33.619 41.592,33.619 41.592,29.474 37.494,29.474 
		37.494,33.619 34.489,33.619 34.489,22.993 37.494,22.993 37.494,26.985 41.592,26.985 41.592,22.993 	"/>
	<polygon clip-path="url(#SVGID_2_)" points="60.291,25.376 57.043,25.376 57.043,33.618 54.083,33.618 54.083,25.376 50.82,25.376 
		50.82,22.994 60.291,22.994 	"/>
	<rect x="13.407" y="26.985" clip-path="url(#SVGID_2_)" width="2.489" height="2.489"/>
	<rect x="29.511" y="26.985" clip-path="url(#SVGID_2_)" width="2.489" height="2.489"/>
	<rect x="47.087" y="26.985" clip-path="url(#SVGID_2_)" width="2.489" height="2.489"/>
	<rect x="61.535" y="26.985" clip-path="url(#SVGID_2_)" width="2.489" height="2.489"/>
</g>
</svg>
